<svg xmlns="http://www.w3.org/2000/svg" viewBox="0 0 60 50"><g fill="#FFF"><path d="M12 50c-3.3 0-6-2.7-6-6s2.7-6 6-6 6 2.7 6 6-2.7 6-6 6zm0-10c-2.2 0-4 1.8-4 4s1.8 4 4 4 4-1.8 4-4-1.8-4-4-4zM48 50c-3.3 0-6-2.7-6-6s2.7-6 6-6 6 2.7 6 6-2.7 6-6 6zm0-10c-2.2 0-4 1.8-4 4s1.8 4 4 4 4-1.8 4-4-1.8-4-4-4z"/><path d="M59 46h-6.1c-.6 0-1-.4-1-1s.4-1 1-1H58V10H26v5c0 .6-.4 1-1 1H13.6l-5.7 9.5c-.1.1-.1.2-.2.3L2 30.5V44h5.1c.6 0 1 .4 1 1s-.4 1-1 1H1c-.6 0-1-.4-1-1V30c0-.3.1-.6.4-.8l5.9-4.9 5.9-9.9c.2-.3.5-.5.9-.5h11V9c0-.6.4-1 1-1h34c.6 0 1 .4 1 1v36c-.1.6-.5 1-1.1 1z"/><path d="M43.1 46H16.9c-.6 0-1-.4-1-1s.4-1 1-1h26.2c.6 0 1 .4 1 1s-.4 1-1 1zM12 28c-.1 0-.3 0-.4-.1-.5-.2-.7-.8-.4-1.3l4-8c.2-.3.5-.6.9-.6h2c.6 0 1 .4 1 1s-.4 1-1 1h-1.4L13 27.4c-.3.4-.6.6-1 .6zM25 40c-.6 0-1-.4-1-1V14c0-.6.4-1 1-1s1 .4 1 1v25c0 .6-.4 1-1 1z"/><path d="M59 40H1c-.6 0-1-.4-1-1s.4-1 1-1h58c.6 0 1 .4 1 1s-.4 1-1 1zM35 10c-.6 0-1-.4-1-1V6c0-2.2-1.8-4-4-4s-4 1.8-4 4v3c0 .6-.4 1-1 1s-1-.4-1-1V6c0-3.3 2.7-6 6-6s6 2.7 6 6v3c0 .6-.4 1-1 1zM45 34h-6c-.6 0-1-.4-1-1v-5h-5c-.6 0-1-.4-1-1v-6c0-.6.4-1 1-1h5v-5c0-.6.4-1 1-1h6c.6 0 1 .4 1 1v5h5c.6 0 1 .4 1 1v6c0 .6-.4 1-1 1h-5v5c0 .6-.4 1-1 1zm-5-2h4v-5c0-.6.4-1 1-1h5v-4h-5c-.6 0-1-.4-1-1v-5h-4v5c0 .6-.4 1-1 1h-5v4h5c.6 0 1 .4 1 1v5z"/></g></svg>