<svg xmlns="http://www.w3.org/2000/svg" viewBox="0 0 60 55.4"><g fill="#FFF"><path d="M14 55.4c-7.7 0-14-6.3-14-14s6.3-14 14-14 14 6.3 14 14-6.3 14-14 14zm0-26c-6.6 0-12 5.4-12 12s5.4 12 12 12 12-5.4 12-12-5.4-12-12-12z"/><path d="M3 35.4c-.1 0-.3 0-.4-.1-.5-.2-.7-.8-.5-1.3l8-18c0-.1.1-.2.2-.3l3.9-3.9L18.1 2c.1-.1.1-.2.2-.3C19.4.6 21.1 0 23 0c1.9 0 3.6.6 4.7 1.7.2.2.3.5.3.7v10c0 .6-.4 1-1 1s-1-.4-1-1V2.9c-.7-.6-1.8-.9-3-.9-1.3 0-2.4.4-3.2 1l-3.9 9.8c-.1.1-.1.2-.2.3L11.8 17 3.9 34.8c-.2.4-.5.6-.9.6zM46 55.4c-7.7 0-14-6.3-14-14s6.3-14 14-14 14 6.3 14 14-6.3 14-14 14zm0-26c-6.6 0-12 5.4-12 12s5.4 12 12 12 12-5.4 12-12-5.4-12-12-12z"/><path d="M57 35.4c-.4 0-.7-.2-.9-.6L48.2 17l-3.9-3.9c-.1-.1-.2-.2-.2-.4L40.5 3c-.7-.6-2-1-3.3-1-1.3 0-2.4.3-3.2.9v9.5c0 .6-.4 1-1 1s-1-.4-1-1v-10c0-.3.1-.5.3-.7C33.4.6 35.2 0 37.2 0c2 0 3.8.6 4.9 1.7.1.1.2.2.2.4l3.6 9.8 3.8 3.8c.1.1.2.2.2.3l8 18c.2.5 0 1.1-.5 1.3-.1.1-.3.1-.4.1zM40 24.4c-.6 0-1-.4-1-1 0-1.9-3.6-4-9-4s-9 2.1-9 4c0 .6-.4 1-1 1s-1-.4-1-1c0-3.4 4.7-6 11-6s11 2.6 11 6c0 .6-.4 1-1 1z"/><path d="M27 42.4c-.6 0-1-.4-1-1V18.6c0-.6.4-1 1-1s1 .4 1 1v22.8c0 .6-.4 1-1 1zM33 42.4c-.6 0-1-.4-1-1V18.6c0-.6.4-1 1-1s1 .4 1 1v22.8c0 .6-.4 1-1 1zM6 42.8c-.6 0-1-.4-1-1 0-4.7 3.8-8.6 8.6-8.6.6 0 1 .4 1 1s-.4 1-1 1c-3.6 0-6.6 3-6.6 6.6 0 .6-.4 1-1 1zM38.8 42.8c-.6 0-1-.4-1-1 0-4.7 3.8-8.6 8.6-8.6.6 0 1 .4 1 1s-.4 1-1 1c-3.6 0-6.6 2.9-6.6 6.6 0 .6-.4 1-1 1z"/></g></svg>