<svg xmlns="http://www.w3.org/2000/svg" viewBox="0 0 48 60"><g fill="#FFF"><path d="M27 60H1c-.6 0-1-.4-1-1V23c0-.6.4-1 1-1h26c.6 0 1 .4 1 1v36c0 .6-.4 1-1 1zM2 58h24V24H2v34z"/><path d="M47 60H27c-.6 0-1-.4-1-1s.4-1 1-1h19V2H22v21c0 .6-.4 1-1 1s-1-.4-1-1V1c0-.6.4-1 1-1h26c.6 0 1 .4 1 1v58c0 .6-.4 1-1 1z"/><path d="M41 60h-8c-.6 0-1-.4-1-1v-8c0-.6.4-1 1-1h8c.6 0 1 .4 1 1v8c0 .6-.4 1-1 1zm-7-2h6v-6h-6v6zM15 60H7c-.6 0-1-.4-1-1v-8c0-.6.4-1 1-1h8c.6 0 1 .4 1 1v8c0 .6-.4 1-1 1zm-7-2h6v-6H8v6zM13 30H1c-.6 0-1-.4-1-1s.4-1 1-1h12c.6 0 1 .4 1 1s-.4 1-1 1zM11 36H1c-.6 0-1-.4-1-1s.4-1 1-1h10c.6 0 1 .4 1 1s-.4 1-1 1zM33 14H21c-.6 0-1-.4-1-1s.4-1 1-1h12c.6 0 1 .4 1 1s-.4 1-1 1zM37 8H21c-.6 0-1-.4-1-1s.4-1 1-1h16c.6 0 1 .4 1 1s-.4 1-1 1zM29 20h-8c-.6 0-1-.4-1-1s.4-1 1-1h8c.6 0 1 .4 1 1s-.4 1-1 1zM7 42H1c-.6 0-1-.4-1-1s.4-1 1-1h6c.6 0 1 .4 1 1s-.4 1-1 1z"/></g></svg>