<svg xmlns="http://www.w3.org/2000/svg" viewBox="-461 183.6 49.6 49.6"><path d="M-421 183.6h-30.4c-5.3 0-9.6 4.3-9.6 9.6v30.4c0 5.3 4.3 9.6 9.6 9.6h30.4c5.3 0 9.6-4.3 9.6-9.6v-30.4c0-5.3-4.3-9.6-9.6-9.6zm2.7 5.7h1.1v8.4h-8.4v-8.4h7.3zm-25 14c1.6-2.2 4.2-3.6 7.1-3.6 2.9 0 5.5 1.4 7.1 3.6 1 1.4 1.7 3.2 1.7 5.1 0 4.8-3.9 8.7-8.7 8.7-4.8 0-8.7-3.9-8.7-8.7-.1-2 .5-3.7 1.5-5.1zm27.1 20.3c0 2.6-2.1 4.8-4.8 4.8h-30.4c-2.6 0-4.8-2.1-4.8-4.8v-20.3h7.4c-.6 1.6-1 3.3-1 5.1 0 7.5 6.1 13.6 13.6 13.6s13.6-6.1 13.6-13.6c0-1.8-.4-3.5-1-5.1h7.4v20.3z"/></svg>