<svg xmlns="http://www.w3.org/2000/svg" viewBox="0 0 60 56"><g fill="#FFF"><path d="M48 56H12c-.6 0-1-.4-1-1s.4-1 1-1h36c.6 0 1 .4 1 1s-.4 1-1 1z"/><path d="M39 56H21c-.3 0-.6-.2-.8-.4-.2-.3-.2-.6-.1-.9l3-8c.1-.4.5-.6.9-.6h12c.4 0 .8.3.9.6l2.9 7.8c.2.1.2.3.2.5 0 .6-.4 1-1 1zm-16.6-2h15.1l-2.2-6H24.7l-2.3 6zM54 40H6V6h48v34zM8 38h44V8H8v30zM30 45c-1.1 0-2-.9-2-2s.9-2 2-2 2 .9 2 2-.9 2-2 2zm0-2v1-1z"/><path d="M55 48H5c-2.8 0-5-2.2-5-5V5c0-2.8 2.2-5 5-5h50c2.8 0 5 2.2 5 5v38c0 2.8-2.2 5-5 5zM5 2C3.3 2 2 3.3 2 5v38c0 1.7 1.3 3 3 3h50c1.7 0 3-1.3 3-3V5c0-1.7-1.3-3-3-3H5z"/></g></svg>