<svg xmlns="http://www.w3.org/2000/svg" viewBox="0 0 79.2 79.2"><path fill="#FFF" d="M39.6 0C17.7 0 0 17.7 0 39.6c0 16.2 9.7 30.1 23.7 36.3-.1-2.8 0-6.1.7-9.1.8-3.2 5.1-21.6 5.1-21.6s-1.3-2.5-1.3-6.3c0-5.9 3.4-10.2 7.6-10.2 3.6 0 5.3 2.7 5.3 5.9 0 3.6-2.3 9-3.5 14.1-1 4.2 2.1 7.6 6.3 7.6 7.5 0 12.6-9.6 12.6-21.1C56.5 26.5 50.7 20 40 20c-12 0-19.5 9-19.5 19 0 3.5 1 5.9 2.6 7.8.7.9.8 1.2.6 2.2-.2.7-.6 2.5-.8 3.2-.3 1-1.1 1.4-2 1-5.5-2.3-8.1-8.3-8.1-15.1 0-11.2 9.5-24.7 28.3-24.7 15.1 0 25.1 10.9 25.1 22.7 0 15.5-8.6 27.1-21.4 27.1-4.3 0-8.3-2.3-9.7-4.9 0 0-2.3 9.1-2.8 10.9-.8 3.1-2.5 6.1-4 8.5 3.6 1 7.3 1.6 11.2 1.6 21.9 0 39.6-17.7 39.6-39.6C79.2 17.7 61.5 0 39.6 0z"/></svg>