<svg xmlns="http://www.w3.org/2000/svg" viewBox="0 0 94.5 69.7"><path fill="#fff" d="M39.3 0v11.7c-6.1 0-11.8 2-17.1 5.9-5.3 3.9-7.9 8.6-7.9 14.1 0 3.3 1.3 4.9 3.9 4.9.6 0 1.8-.2 3.5-.7 1.8-.4 3.3-.6 4.4-.6 3.6 0 6.9 1.4 10.1 4.3 3.2 2.9 4.7 6.9 4.7 12 0 4.9-1.6 9.2-4.9 12.7-3.3 3.5-7.7 5.3-13.4 5.3-6.8 0-12.2-2.6-16.4-7.7C2.1 57 0 49.8 0 40.7c0-12.6 3.8-22.4 11.5-29.5C19.1 4.1 28.4.3 39.3 0zm53.6 0v11.7c-5.8 0-11.4 1.9-16.8 5.8s-8.2 8.6-8.2 14.2c0 3.3 1.3 4.9 3.9 4.9.6 0 1.8-.2 3.5-.7 1.8-.4 3.3-.6 4.4-.6 3.8 0 7.2 1.5 10.3 4.5 3.1 3 4.6 6.9 4.6 11.8s-1.6 9.2-4.9 12.7c-3.3 3.5-7.7 5.3-13.4 5.3-6.8 0-12.2-2.6-16.4-7.7-4.2-5.1-6.2-12.2-6.2-21.3 0-12.6 3.8-22.4 11.5-29.5C72.7 4.1 82 .3 92.9 0z"/></svg>