<svg xmlns="http://www.w3.org/2000/svg" viewBox="0 0 89.7 93.4"><path clip-path="url(#SVGID_2_)" fill="#FFF" d="M83.2 10.1c1.3-.1 5.5 20.7-2.9 35.5C75 54.8 63.8 61.7 54.5 65c2.2-14.6 6.9-28.7 14-37.1-9.4 6.4-14.1 15-16.8 23.1-.9-4.8-1.8-7.1-2.6-9.7 4.6-24.8 33.5-31.6 34.1-31.2M8.3 91.7H8c.2-.7.1-1.3-1.1-2 13.2-10 24.3-13.2 34.8-12.9.7-7.6 1.2-24-3.6-39.5-2.9-8-10.9-20.8-25.3-26 7.7 5.2 15.8 15.6 20.9 26.9C4.7 33.5-1.7 10.9.3 0c12 5.1 23.6 4.9 32.2 11.2 7.8 5.7 9.4 14.2 8.5 23.6 6.8 13.4 11.2 33.7 11.4 43.3 12 2.7 23.7 8.5 37.3 12.2-27.4 5.9-53.4 1.7-81.4 1.4M38 68.2c-4.8-1.1-11.2-3.6-13.9-8.2-3.8-6.6-4.1-17.4-3.5-17.4.3-.2 12.4 4.6 16.6 9.6.4 2.4 1 6.2 1.3 8.8-1.8-3.8-4.6-7.8-9.6-10.5 4 4 7.2 10.7 9.1 17.7"/></svg>