<?xml version="1.0" encoding="utf-8"?>
<!-- Generator: Adobe Illustrator 18.1.1, SVG Export Plug-In . SVG Version: 6.00 Build 0)  -->
<!DOCTYPE svg PUBLIC "-//W3C//DTD SVG 1.1//EN" "http://www.w3.org/Graphics/SVG/1.1/DTD/svg11.dtd">
<svg version="1.1" id="Layer_1" xmlns="http://www.w3.org/2000/svg" xmlns:xlink="http://www.w3.org/1999/xlink" x="0px" y="0px"
	 viewBox="0 0 60 50" enable-background="new 0 0 60 50" xml:space="preserve">
<g>
	<path fill="#FFFFFF" d="M12,50c-3.3,0-6-2.7-6-6s2.7-6,6-6s6,2.7,6,6S15.3,50,12,50z M12,40c-2.2,0-4,1.8-4,4s1.8,4,4,4s4-1.8,4-4
		S14.2,40,12,40z"/>
	<path fill="#FFFFFF" d="M48,50c-3.3,0-6-2.7-6-6s2.7-6,6-6s6,2.7,6,6S51.3,50,48,50z M48,40c-2.2,0-4,1.8-4,4s1.8,4,4,4s4-1.8,4-4
		S50.2,40,48,40z"/>
	<path fill="#FFFFFF" d="M59,46h-6.1c-0.6,0-1-0.4-1-1s0.4-1,1-1H58V10H26v5c0,0.6-0.4,1-1,1H13.6l-5.7,9.5
		c-0.1,0.1-0.1,0.2-0.2,0.3L2,30.5V44h5.1c0.6,0,1,0.4,1,1s-0.4,1-1,1H1c-0.6,0-1-0.4-1-1V30c0-0.3,0.1-0.6,0.4-0.8l5.9-4.9l5.9-9.9
		c0.2-0.3,0.5-0.5,0.9-0.5h11V9c0-0.6,0.4-1,1-1h34c0.6,0,1,0.4,1,1v36C60,45.6,59.6,46,59,46z"/>
	<path fill="#FFFFFF" d="M43.1,46H16.9c-0.6,0-1-0.4-1-1s0.4-1,1-1h26.2c0.6,0,1,0.4,1,1S43.7,46,43.1,46z"/>
	<path fill="#FFFFFF" d="M12,28c-0.1,0-0.3,0-0.4-0.1c-0.5-0.2-0.7-0.8-0.4-1.3l4-8c0.2-0.3,0.5-0.6,0.9-0.6h2c0.6,0,1,0.4,1,1
		s-0.4,1-1,1h-1.4l-3.7,7.4C12.7,27.8,12.4,28,12,28z"/>
	<path fill="#FFFFFF" d="M25,40c-0.6,0-1-0.4-1-1V14c0-0.6,0.4-1,1-1s1,0.4,1,1v25C26,39.6,25.6,40,25,40z"/>
	<path fill="#FFFFFF" d="M59,40H1c-0.6,0-1-0.4-1-1s0.4-1,1-1h58c0.6,0,1,0.4,1,1S59.6,40,59,40z"/>
	<path fill="#FFFFFF" d="M35,10c-0.6,0-1-0.4-1-1V6c0-2.2-1.8-4-4-4s-4,1.8-4,4v3c0,0.6-0.4,1-1,1s-1-0.4-1-1V6c0-3.3,2.7-6,6-6
		s6,2.7,6,6v3C36,9.6,35.6,10,35,10z"/>
	<path fill="#FFFFFF" d="M45,34h-6c-0.6,0-1-0.4-1-1v-5h-5c-0.6,0-1-0.4-1-1v-6c0-0.6,0.4-1,1-1h5v-5c0-0.6,0.4-1,1-1h6
		c0.6,0,1,0.4,1,1v5h5c0.6,0,1,0.4,1,1v6c0,0.6-0.4,1-1,1h-5v5C46,33.6,45.6,34,45,34z M40,32h4v-5c0-0.6,0.4-1,1-1h5v-4h-5
		c-0.6,0-1-0.4-1-1v-5h-4v5c0,0.6-0.4,1-1,1h-5v4h5c0.6,0,1,0.4,1,1V32z"/>
</g>
</svg>
