<svg version="1.1" id="Layer_1" xmlns="http://www.w3.org/2000/svg" xmlns:xlink="http://www.w3.org/1999/xlink" x="0px" y="0px"
	 viewBox="0 0 60 55.4" enable-background="new 0 0 60 55.4" xml:space="preserve">
<g>
	<path fill="#FFFFFF" d="M14,55.4c-7.7,0-14-6.3-14-14s6.3-14,14-14s14,6.3,14,14S21.7,55.4,14,55.4z M14,29.4c-6.6,0-12,5.4-12,12
		c0,6.6,5.4,12,12,12s12-5.4,12-12C26,34.8,20.6,29.4,14,29.4z"/>
	<path fill="#FFFFFF" d="M3,35.4c-0.1,0-0.3,0-0.4-0.1c-0.5-0.2-0.7-0.8-0.5-1.3l8-18c0-0.1,0.1-0.2,0.2-0.3l3.9-3.9L18.1,2
		c0.1-0.1,0.1-0.2,0.2-0.3C19.4,0.6,21.1,0,23,0c1.9,0,3.6,0.6,4.7,1.7C27.9,1.9,28,2.2,28,2.4v10c0,0.6-0.4,1-1,1s-1-0.4-1-1V2.9
		C25.3,2.3,24.2,2,23,2c-1.3,0-2.4,0.4-3.2,1l-3.9,9.8c-0.1,0.1-0.1,0.2-0.2,0.3L11.8,17L3.9,34.8C3.7,35.2,3.4,35.4,3,35.4z"/>
	<path fill="#FFFFFF" d="M46,55.4c-7.7,0-14-6.3-14-14s6.3-14,14-14s14,6.3,14,14S53.7,55.4,46,55.4z M46,29.4c-6.6,0-12,5.4-12,12
		c0,6.6,5.4,12,12,12s12-5.4,12-12C58,34.8,52.6,29.4,46,29.4z"/>
	<path fill="#FFFFFF" d="M57,35.4c-0.4,0-0.7-0.2-0.9-0.6L48.2,17l-3.9-3.9c-0.1-0.1-0.2-0.2-0.2-0.4L40.5,3c-0.7-0.6-2-1-3.3-1
		c-1.3,0-2.4,0.3-3.2,0.9v9.5c0,0.6-0.4,1-1,1s-1-0.4-1-1v-10c0-0.3,0.1-0.5,0.3-0.7C33.4,0.6,35.2,0,37.2,0c2,0,3.8,0.6,4.9,1.7
		c0.1,0.1,0.2,0.2,0.2,0.4l3.6,9.8l3.8,3.8c0.1,0.1,0.2,0.2,0.2,0.3l8,18c0.2,0.5,0,1.1-0.5,1.3C57.3,35.4,57.1,35.4,57,35.4z"/>
	<path fill="#FFFFFF" d="M40,24.4c-0.6,0-1-0.4-1-1c0-1.9-3.6-4-9-4s-9,2.1-9,4c0,0.6-0.4,1-1,1s-1-0.4-1-1c0-3.4,4.7-6,11-6
		s11,2.6,11,6C41,24,40.6,24.4,40,24.4z"/>
	<path fill="#FFFFFF" d="M27,42.4c-0.6,0-1-0.4-1-1V18.6c0-0.6,0.4-1,1-1s1,0.4,1,1v22.8C28,42,27.6,42.4,27,42.4z"/>
	<path fill="#FFFFFF" d="M33,42.4c-0.6,0-1-0.4-1-1V18.6c0-0.6,0.4-1,1-1s1,0.4,1,1v22.8C34,42,33.6,42.4,33,42.4z"/>
	<path fill="#FFFFFF" d="M6,42.8c-0.6,0-1-0.4-1-1c0-4.7,3.8-8.6,8.6-8.6c0.6,0,1,0.4,1,1s-0.4,1-1,1C10,35.2,7,38.2,7,41.8
		C7,42.4,6.6,42.8,6,42.8z"/>
	<path fill="#FFFFFF" d="M38.8,42.8c-0.6,0-1-0.4-1-1c0-4.7,3.8-8.6,8.6-8.6c0.6,0,1,0.4,1,1s-0.4,1-1,1c-3.6,0-6.6,2.9-6.6,6.6
		C39.8,42.4,39.4,42.8,38.8,42.8z"/>
</g>
</svg>
