<?xml version="1.0" encoding="utf-8"?>
<!-- Generator: Adobe Illustrator 18.1.1, SVG Export Plug-In . SVG Version: 6.00 Build 0)  -->
<!DOCTYPE svg PUBLIC "-//W3C//DTD SVG 1.1//EN" "http://www.w3.org/Graphics/SVG/1.1/DTD/svg11.dtd">
<svg version="1.1" id="Layer_1" xmlns="http://www.w3.org/2000/svg" xmlns:xlink="http://www.w3.org/1999/xlink" x="0px" y="0px"
	 viewBox="0 0 48 60" enable-background="new 0 0 48 60" xml:space="preserve">
<g>
	<path fill="#FFFFFF" d="M27,60H1c-0.6,0-1-0.4-1-1V23c0-0.6,0.4-1,1-1h26c0.6,0,1,0.4,1,1v36C28,59.6,27.6,60,27,60z M2,58h24V24H2
		V58z"/>
	<path fill="#FFFFFF" d="M47,60H27c-0.6,0-1-0.4-1-1s0.4-1,1-1h19V2H22v21c0,0.6-0.4,1-1,1s-1-0.4-1-1V1c0-0.6,0.4-1,1-1h26
		c0.6,0,1,0.4,1,1v58C48,59.6,47.6,60,47,60z"/>
	<path fill="#FFFFFF" d="M41,60h-8c-0.6,0-1-0.4-1-1v-8c0-0.6,0.4-1,1-1h8c0.6,0,1,0.4,1,1v8C42,59.6,41.6,60,41,60z M34,58h6v-6h-6
		V58z"/>
	<path fill="#FFFFFF" d="M15,60H7c-0.6,0-1-0.4-1-1v-8c0-0.6,0.4-1,1-1h8c0.6,0,1,0.4,1,1v8C16,59.6,15.6,60,15,60z M8,58h6v-6H8V58
		z"/>
	<path fill="#FFFFFF" d="M13,30H1c-0.6,0-1-0.4-1-1s0.4-1,1-1h12c0.6,0,1,0.4,1,1S13.6,30,13,30z"/>
	<path fill="#FFFFFF" d="M11,36H1c-0.6,0-1-0.4-1-1c0-0.6,0.4-1,1-1h10c0.6,0,1,0.4,1,1C12,35.6,11.6,36,11,36z"/>
	<path fill="#FFFFFF" d="M33,14H21c-0.6,0-1-0.4-1-1s0.4-1,1-1h12c0.6,0,1,0.4,1,1S33.6,14,33,14z"/>
	<path fill="#FFFFFF" d="M37,8H21c-0.6,0-1-0.4-1-1s0.4-1,1-1h16c0.6,0,1,0.4,1,1S37.6,8,37,8z"/>
	<path fill="#FFFFFF" d="M29,20h-8c-0.6,0-1-0.4-1-1s0.4-1,1-1h8c0.6,0,1,0.4,1,1S29.6,20,29,20z"/>
	<path fill="#FFFFFF" d="M7,42H1c-0.6,0-1-0.4-1-1s0.4-1,1-1h6c0.6,0,1,0.4,1,1S7.6,42,7,42z"/>
</g>
</svg>
