<?xml version="1.0" encoding="utf-8"?>
<!-- Generator: Adobe Illustrator 18.1.1, SVG Export Plug-In . SVG Version: 6.00 Build 0)  -->
<!DOCTYPE svg PUBLIC "-//W3C//DTD SVG 1.1//EN" "http://www.w3.org/Graphics/SVG/1.1/DTD/svg11.dtd">
<svg version="1.1" id="Layer_1" xmlns="http://www.w3.org/2000/svg" xmlns:xlink="http://www.w3.org/1999/xlink" x="0px" y="0px"
	 viewBox="-461 183.6 49.6 49.6" enable-background="new -461 183.6 49.6 49.6" xml:space="preserve">
<path d="M-421,183.6h-30.4c-5.3,0-9.6,4.3-9.6,9.6v10.1v20.3c0,5.3,4.3,9.6,9.6,9.6h30.4c5.3,0,9.6-4.3,9.6-9.6v-20.3v-10.1
	C-411.4,187.9-415.7,183.6-421,183.6z M-418.3,189.3l1.1,0v1.1v7.3l-8.4,0l0-8.4L-418.3,189.3z M-443.3,203.3
	c1.6-2.2,4.2-3.6,7.1-3.6c2.9,0,5.5,1.4,7.1,3.6c1,1.4,1.7,3.2,1.7,5.1c0,4.8-3.9,8.7-8.7,8.7c-4.8,0-8.7-3.9-8.7-8.7
	C-444.9,206.4-444.3,204.7-443.3,203.3z M-416.2,223.6c0,2.6-2.1,4.8-4.8,4.8h-30.4c-2.6,0-4.8-2.1-4.8-4.8v-20.3h7.4
	c-0.6,1.6-1,3.3-1,5.1c0,7.5,6.1,13.6,13.6,13.6c7.5,0,13.6-6.1,13.6-13.6c0-1.8-0.4-3.5-1-5.1h7.4V223.6z"/>
</svg>
