<?xml version="1.0" encoding="utf-8"?>
<!-- Generator: Adobe Illustrator 19.0.1, SVG Export Plug-In . SVG Version: 6.00 Build 0)  -->
<!DOCTYPE svg PUBLIC "-//W3C//DTD SVG 1.1//EN" "http://www.w3.org/Graphics/SVG/1.1/DTD/svg11.dtd">
<svg version="1.1" id="Layer_1" xmlns="http://www.w3.org/2000/svg" xmlns:xlink="http://www.w3.org/1999/xlink" x="0px" y="0px"
	 viewBox="0 0 19.3 18.4" enable-background="new 0 0 19.3 18.4" xml:space="preserve">
<g>
	<path fill-rule="evenodd" clip-rule="evenodd" fill="#FFFFFF" d="M4.4,18.4V6H0.2v12.4H4.4L4.4,18.4z M2.3,4.3c1.4,0,2.3-1,2.3-2.1
		C4.6,0.9,3.7,0,2.3,0C0.9,0,0,0.9,0,2.1C0,3.3,0.9,4.3,2.3,4.3L2.3,4.3L2.3,4.3z"/>
	<path fill-rule="evenodd" clip-rule="evenodd" fill="#FFFFFF" d="M6.7,18.4h4.1v-6.9c0-0.4,0-0.7,0.1-1C11.2,9.7,11.9,9,13,9
		c1.5,0,2.1,1.1,2.1,2.8v6.6h4.1v-7.1c0-3.8-2-5.6-4.8-5.6c-2.2,0-3.2,1.2-3.7,2.1h0V6H6.7C6.7,7.2,6.7,18.4,6.7,18.4L6.7,18.4z"/>
</g>
</svg>
