<svg version="1.1" id="Layer_1" xmlns="http://www.w3.org/2000/svg" xmlns:xlink="http://www.w3.org/1999/xlink" x="0px" y="0px"
	 viewBox="0 0 60 60" enable-background="new 0 0 60 60" xml:space="preserve">
<g>
	<path fill="#FFFFFF" d="M59,60c-0.3,0-0.5-0.1-0.7-0.3L34.4,35.8c-0.4-0.4-0.4-1,0-1.4s1-0.4,1.4,0l23.9,23.9c0.4,0.4,0.4,1,0,1.4
		C59.5,59.9,59.3,60,59,60z"/>
	<path fill="#FFFFFF" d="M21,42C9.4,42,0,32.6,0,21S9.4,0,21,0s21,9.4,21,21S32.6,42,21,42z M21,2C10.5,2,2,10.5,2,21s8.5,19,19,19
		s19-8.5,19-19S31.5,2,21,2z"/>
</g>
</svg>
