<?xml version="1.0" encoding="utf-8"?>
<!-- Generator: Adobe Illustrator 18.1.1, SVG Export Plug-In . SVG Version: 6.00 Build 0)  -->
<!DOCTYPE svg PUBLIC "-//W3C//DTD SVG 1.1//EN" "http://www.w3.org/Graphics/SVG/1.1/DTD/svg11.dtd">
<svg version="1.1" id="Layer_1" xmlns="http://www.w3.org/2000/svg" xmlns:xlink="http://www.w3.org/1999/xlink" x="0px" y="0px"
	 viewBox="0 0 60 56" enable-background="new 0 0 60 56" xml:space="preserve">
<g>
	<path fill="#FFFFFF" d="M48,56H12c-0.6,0-1-0.4-1-1s0.4-1,1-1h36c0.6,0,1,0.4,1,1S48.6,56,48,56z"/>
	<path fill="#FFFFFF" d="M39,56C39,56,39,56,39,56H21c-0.3,0-0.6-0.2-0.8-0.4c-0.2-0.3-0.2-0.6-0.1-0.9l3-8c0.1-0.4,0.5-0.6,0.9-0.6
		h12c0.4,0,0.8,0.3,0.9,0.6l2.9,7.8C40,54.6,40,54.8,40,55C40,55.6,39.6,56,39,56z M22.4,54h15.1l-2.2-6H24.7L22.4,54z"/>
	<path fill="#FFFFFF" d="M54,40H6V6h48V40z M8,38h44V8H8V38z"/>
	<path fill="#FFFFFF" d="M30,45c-1.1,0-2-0.9-2-2s0.9-2,2-2s2,0.9,2,2S31.1,45,30,45z M30,43C30,43,30,43,30,43l0,1L30,43z"/>
	<path fill="#FFFFFF" d="M55,48H5c-2.8,0-5-2.2-5-5V5c0-2.8,2.2-5,5-5h50c2.8,0,5,2.2,5,5v38C60,45.8,57.8,48,55,48z M5,2
		C3.3,2,2,3.3,2,5v38c0,1.7,1.3,3,3,3h50c1.7,0,3-1.3,3-3V5c0-1.7-1.3-3-3-3H5z"/>
</g>
</svg>
