<svg version="1.1" id="Layer_1" xmlns="http://www.w3.org/2000/svg" xmlns:xlink="http://www.w3.org/1999/xlink" x="0px" y="0px"
	 viewBox="0 0 60 60" enable-background="new 0 0 60 60" xml:space="preserve">
<g>
	<path fill="#FFFFFF" d="M5,60c-2.8,0-5-2.2-5-5s2.2-5,5-5s5,2.2,5,5S7.8,60,5,60z M5,52c-1.7,0-3,1.3-3,3s1.3,3,3,3s3-1.3,3-3
		S6.7,52,5,52z"/>
	<path fill="#FFFFFF" d="M35,60c-2.8,0-5-2.2-5-5s2.2-5,5-5s5,2.2,5,5S37.8,60,35,60z M35,52c-1.7,0-3,1.3-3,3s1.3,3,3,3s3-1.3,3-3
		S36.7,52,35,52z"/>
	<path fill="#FFFFFF" d="M55,41c-2.8,0-5-2.2-5-5s2.2-5,5-5s5,2.2,5,5S57.8,41,55,41z M55,33c-1.7,0-3,1.3-3,3s1.3,3,3,3s3-1.3,3-3
		S56.7,33,55,33z"/>
	<path fill="#FFFFFF" d="M55,10c-2.8,0-5-2.2-5-5s2.2-5,5-5s5,2.2,5,5S57.8,10,55,10z M55,2c-1.7,0-3,1.3-3,3s1.3,3,3,3s3-1.3,3-3
		S56.7,2,55,2z"/>
	<path fill="#FFFFFF" d="M5,19c-2.8,0-5-2.2-5-5s2.2-5,5-5s5,2.2,5,5S7.8,19,5,19z M5,11c-1.7,0-3,1.3-3,3s1.3,3,3,3s3-1.3,3-3
		S6.7,11,5,11z"/>
	<path fill="#FFFFFF" d="M34,37c-6.1,0-11-4.9-11-11s4.9-11,11-11s11,4.9,11,11S40.1,37,34,37z M34,17c-5,0-9,4-9,9s4,9,9,9s9-4,9-9
		S39,17,34,17z"/>
	<rect x="34" y="35.9" fill="#FFFFFF" width="2" height="15.1"/>
	<rect x="16.4" y="29.1" transform="matrix(0.7071 0.7071 -0.7071 0.7071 35.2238 0.1849)" fill="#FFFFFF" width="2" height="27"/>
	
		<rect x="42.6" y="31.3" transform="matrix(0.9029 0.4299 -0.4299 0.9029 18.4684 -17.1601)" fill="#FFFFFF" width="9.3" height="2"/>
	
		<rect x="45.6" y="5.5" transform="matrix(0.7071 0.7071 -0.7071 0.7071 23.1145 -29.0495)" fill="#FFFFFF" width="2" height="15.7"/>
	<rect x="8" y="17.9" transform="matrix(0.924 0.3823 -0.3823 0.924 8.4787 -4.9629)" fill="#FFFFFF" width="17.4" height="2"/>
</g>
</svg>
