<?xml version="1.0" encoding="utf-8"?>
<!-- Generator: Adobe Illustrator 19.0.1, SVG Export Plug-In . SVG Version: 6.00 Build 0)  -->
<!DOCTYPE svg PUBLIC "-//W3C//DTD SVG 1.1//EN" "http://www.w3.org/Graphics/SVG/1.1/DTD/svg11.dtd">
<svg version="1.1" id="Pinterest" xmlns="http://www.w3.org/2000/svg" xmlns:xlink="http://www.w3.org/1999/xlink" x="0px" y="0px"
	 viewBox="0 0 79.2 79.2" enable-background="new 0 0 79.2 79.2" xml:space="preserve">
<path fill="#FFFFFF" d="M39.6,0C17.7,0,0,17.7,0,39.6c0,16.2,9.7,30.1,23.7,36.3c-0.1-2.8,0-6.1,0.7-9.1c0.8-3.2,5.1-21.6,5.1-21.6
	s-1.3-2.5-1.3-6.3c0-5.9,3.4-10.2,7.6-10.2c3.6,0,5.3,2.7,5.3,5.9c0,3.6-2.3,9-3.5,14.1c-1,4.2,2.1,7.6,6.3,7.6
	c7.5,0,12.6-9.6,12.6-21.1c0-8.7-5.8-15.2-16.5-15.2c-12,0-19.5,9-19.5,19c0,3.5,1,5.9,2.6,7.8c0.7,0.9,0.8,1.2,0.6,2.2
	c-0.2,0.7-0.6,2.5-0.8,3.2c-0.3,1-1.1,1.4-2,1c-5.5-2.3-8.1-8.3-8.1-15.1c0-11.2,9.5-24.7,28.3-24.7c15.1,0,25.1,10.9,25.1,22.7
	c0,15.5-8.6,27.1-21.4,27.1c-4.3,0-8.3-2.3-9.7-4.9c0,0-2.3,9.1-2.8,10.9c-0.8,3.1-2.5,6.1-4,8.5c3.6,1,7.3,1.6,11.2,1.6
	c21.9,0,39.6-17.7,39.6-39.6C79.2,17.7,61.5,0,39.6,0z"/>
</svg>
