<?xml version="1.0" encoding="utf-8"?>
<!-- Generator: Adobe Illustrator 19.0.1, SVG Export Plug-In . SVG Version: 6.00 Build 0)  -->
<!DOCTYPE svg PUBLIC "-//W3C//DTD SVG 1.1//EN" "http://www.w3.org/Graphics/SVG/1.1/DTD/svg11.dtd">
<svg version="1.1" id="Layer_1" xmlns="http://www.w3.org/2000/svg" xmlns:xlink="http://www.w3.org/1999/xlink" x="0px" y="0px"
	 viewBox="0 0 94.5 69.7" enable-background="new 0 0 94.5 69.7" xml:space="preserve">
<g>
	<path fill="#fff" d="M39.3,0v11.7c-6.1,0-11.8,2-17.1,5.9c-5.3,3.9-7.9,8.6-7.9,14.1c0,3.3,1.3,4.9,3.9,4.9c0.6,0,1.8-0.2,3.5-0.7
		c1.8-0.4,3.3-0.6,4.4-0.6c3.6,0,6.9,1.4,10.1,4.3c3.2,2.9,4.7,6.9,4.7,12c0,4.9-1.6,9.2-4.9,12.7c-3.3,3.5-7.7,5.3-13.4,5.3
		c-6.8,0-12.2-2.6-16.4-7.7C2.1,57,0,49.8,0,40.7c0-12.6,3.8-22.4,11.5-29.5C19.1,4.1,28.4,0.3,39.3,0z M92.9,0v11.7
		c-5.8,0-11.4,1.9-16.8,5.8c-5.4,3.9-8.2,8.6-8.2,14.2c0,3.3,1.3,4.9,3.9,4.9c0.6,0,1.8-0.2,3.5-0.7c1.8-0.4,3.3-0.6,4.4-0.6
		c3.8,0,7.2,1.5,10.3,4.5c3.1,3,4.6,6.9,4.6,11.8c0,4.9-1.6,9.2-4.9,12.7c-3.3,3.5-7.7,5.3-13.4,5.3c-6.8,0-12.2-2.6-16.4-7.7
		c-4.2-5.1-6.2-12.2-6.2-21.3c0-12.6,3.8-22.4,11.5-29.5C72.7,4.1,82,0.3,92.9,0z"/>
</g>
</svg>
