<?xml version="1.0" encoding="utf-8"?>
<!-- Generator: Adobe Illustrator 18.1.1, SVG Export Plug-In . SVG Version: 6.00 Build 0)  -->
<!DOCTYPE svg PUBLIC "-//W3C//DTD SVG 1.1//EN" "http://www.w3.org/Graphics/SVG/1.1/DTD/svg11.dtd">
<svg version="1.1" id="Layer_1" xmlns="http://www.w3.org/2000/svg" xmlns:xlink="http://www.w3.org/1999/xlink" x="0px" y="0px"
	 viewBox="0 0 89.7 93.4" enable-background="new 0 0 89.7 93.4" xml:space="preserve">
<g>
	<path clip-path="url(#SVGID_2_)" fill="#FFFFFF" d="M83.2,10.1c1.3-0.1,5.5,20.7-2.9,35.5C75,54.8,63.8,61.7,54.5,65
		c2.2-14.6,6.9-28.7,14-37.1c-9.4,6.4-14.1,15-16.8,23.1c-0.9-4.8-1.8-7.1-2.6-9.7C53.7,16.5,82.6,9.7,83.2,10.1 M8.3,91.7L8.3,91.7
		c-0.1,0-0.2,0-0.3,0c0.2-0.7,0.1-1.3-1.1-2c13.2-10,24.3-13.2,34.8-12.9c0.7-7.6,1.2-24-3.6-39.5c-2.9-8-10.9-20.8-25.3-26
		c7.7,5.2,15.8,15.6,20.9,26.9C4.7,33.5-1.7,10.9,0.3,0c12,5.1,23.6,4.9,32.2,11.2c7.8,5.7,9.4,14.2,8.5,23.6l0,0
		c6.8,13.4,11.2,33.7,11.4,43.3c12,2.7,23.7,8.5,37.3,12.2C62.3,96.2,36.3,92,8.3,91.7 M38,68.2c-4.8-1.1-11.2-3.6-13.9-8.2
		c-3.8-6.6-4.1-17.4-3.5-17.4c0.3-0.2,12.4,4.6,16.6,9.6c0.4,2.4,1,6.2,1.3,8.8c-1.8-3.8-4.6-7.8-9.6-10.5
		C32.9,54.5,36.1,61.2,38,68.2"/>
</g>
</svg>
