<svg xmlns="http://www.w3.org/2000/svg" width="403.246" height="403.23" viewBox="0 0 403.246 403.23"><g fill="#fff"><path d="M91.203 292.904l21.06 21.065 9.68-17.168-13.571-13.572zM201.623 0c-111.351 0-201.623 90.289-201.623 201.624 0 111.35 90.272 201.606 201.623 201.606 111.35 0 201.623-90.257 201.623-201.606 0-111.335-90.273-201.624-201.623-201.624zm87.119 220.575c-.492 2.979-2.381 5.532-5.087 6.875l-116.661 57.698 25.904 25.899c3.614 3.608 3.624 9.503.011 13.132l-4.348 4.342c-1.741 1.746-4.069 2.711-6.56 2.711-2.491 0-4.82-.97-6.57-2.727l-30.158-30.152c-.436-.441-.824-.913-1.153-1.411l-11.595 11.584-12.187 18.385c-1.562 2.34-4.08 3.854-6.875 4.143-.31.026-.625.037-.938.037-2.465 0-4.851-.98-6.628-2.737l-29.314-29.314c-1.982-1.993-2.968-4.767-2.689-7.562.278-2.79 1.799-5.323 4.148-6.875l18.111-12.009 12.765-12.764 68.537-138.581c1.338-2.7 3.902-4.594 6.881-5.093 2.994-.492 6.009.488 8.144 2.629l93.641 93.64c2.133 2.136 3.113 5.166 2.621 8.15zm4.237-45.953c-.604.609-1.301 1.159-2.046 1.631-3.648 2.287-7.403 1.679-8.363-1.331-4.453-13.812-11.699-25.796-21.29-35.407-9.571-9.555-21.428-16.791-35.104-21.149-3.036-.959-3.634-4.708-1.364-8.321 2.245-3.65 6.529-5.837 9.561-4.882 14.977 4.745 27.855 12.627 38.238 23.01 10.446 10.456 18.322 23.498 23.188 38.47.767 2.411-.46 5.61-2.82 7.979zm42.769-2.097c-.786.786-1.72 1.489-2.731 2.034-3.771 1.957-7.263.887-7.829-2.359-4.562-25.979-15.7-47.767-32.208-64.275-16.487-16.481-38.271-27.609-64.255-32.192l.031-.026c-3.256-.565-4.314-4.063-2.364-7.777 1.914-3.707 6.114-6.297 9.387-5.721 27.693 4.903 51.013 16.739 68.596 34.337 17.604 17.604 29.456 40.934 34.353 68.627.398 2.354-.839 5.218-2.98 7.352z"/></g></svg>