<svg xmlns="http://www.w3.org/2000/svg" width="49.249" height="49.25" viewBox="0 0 49.249 49.25"><g fill="#6D6E71"><path d="M24.625 0c-13.6 0-24.625 11.025-24.625 24.625 0 13.602 11.025 24.625 24.625 24.625 13.599 0 24.624-11.023 24.624-24.625 0-13.6-11.025-24.625-24.624-24.625zm13.715 36.586c0 1.096-.909 1.982-2.031 1.982h-23.416c-1.123 0-2.031-.887-2.031-1.982v-23.69c0-1.094.908-1.982 2.031-1.982h23.416c1.122 0 2.031.889 2.031 1.982v23.69zM29.378 21.285c-2.202 0-3.188 1.209-3.741 2.061v.041h-.027l.027-.041v-1.768h-4.149c.054 1.17 0 12.484 0 12.484h4.149v-6.972c0-.375.027-.744.137-1.012.301-.744.984-1.52 2.13-1.52 1.503 0 2.103 1.146 2.103 2.824v6.68h4.15v-7.158c-.001-3.836-2.049-5.619-4.779-5.619zM17.143 15.557c-1.419 0-2.348.934-2.348 2.158 0 1.197.9 2.158 2.293 2.158h.027c1.447 0 2.349-.961 2.349-2.158-.027-1.225-.902-2.158-2.321-2.158zM15.04 21.578h4.151v12.484h-4.151z"/></g></svg>