<svg xmlns="http://www.w3.org/2000/svg" width="49.248" height="49.249" viewBox="0 0 49.248 49.249"><path fill="#6D6E71" d="M24.625 0c-13.6 0-24.625 11.025-24.625 24.624 0 10.083 6.063 18.745 14.739 22.554-.069-1.719-.012-3.783.43-5.654.474-1.999 3.167-13.418 3.167-13.418s-.785-1.571-.785-3.896c0-3.649 2.115-6.375 4.748-6.375 2.24 0 3.322 1.683 3.322 3.697 0 2.252-1.437 5.62-2.175 8.738-.617 2.612 1.311 4.743 3.887 4.743 4.665 0 7.808-5.992 7.808-13.092 0-5.397-3.635-9.438-10.246-9.438-7.47 0-12.123 5.571-12.123 11.793 0 2.146.632 3.659 1.623 4.83.455.539.519.754.354 1.373l-.502 1.975c-.165.625-.67.848-1.233.617-3.439-1.404-5.043-5.173-5.043-9.408 0-6.994 5.9-15.382 17.6-15.382 9.401 0 15.588 6.802 15.588 14.106 0 9.659-5.369 16.876-13.286 16.876-2.658 0-5.159-1.438-6.016-3.069 0 0-1.429 5.674-1.732 6.769-.522 1.899-1.544 3.796-2.479 5.275 2.215.653 4.554 1.01 6.979 1.01 13.598 0 24.623-11.024 24.623-24.625 0-13.598-11.025-24.623-24.623-24.623z"/></svg>