<svg xmlns="http://www.w3.org/2000/svg" width="49.248" height="49.248" viewBox="0 0 49.248 49.248"><path fill="#6D6E71" d="M24.625 0c-13.6 0-24.625 11.027-24.625 24.625 0 13.6 11.025 24.623 24.625 24.623s24.623-11.023 24.623-24.623c0-13.598-11.023-24.625-24.623-24.625zm13.598 24.904c-.297 1.504-1.043 3.074-2.229 4.719-2.568 3.141-5.685 5.215-9.361 6.225h-.065c-3.786 1.02-7.583.932-11.382-.264-3.313-1.252-5.991-3.25-8.01-6.014 2.008 1.58 3.863 2.369 5.597 2.379l.044-.02c2.842.188 5.268-.703 7.276-2.68l.032-.031-.064-.076c-1.164.053-1.955-.299-2.394-1.055-.121-.506 0-.945.373-1.318.208-.24.527-.461.933-.658-2.052.055-3.467-.658-4.27-2.148.615-.66 1.404-.977 2.36-.924l.011-.031c-2.437-.66-3.721-1.846-3.841-3.568.626-.186 1.272-.285 1.942-.273v-.033c-1.898-1.076-2.854-2.557-2.843-4.414 1.745.541 3.468 1.23 5.169 2.064 1.559.658 2.908 1.338 4.061 2.051.978.551 1.789 1.23 2.47 2.043l.033-.033.175-.129c.473-1.791 1.263-3.547 2.393-5.291l.022-.057c.438-.635 1.01-1.336 1.722-2.096.342-.34.736-.658 1.187-.953.088.055-.044.361-.396.932.944-.801 1.844-1.205 2.678-1.229.187.186-.143.549-.987 1.064.669-.254 1.415-.418 2.228-.516.352.043.473.217.373.537-.285.395-1.24.758-2.854 1.109l-.031.01.055.121c1.777-.068 3.324.494 4.642 1.668l.065.055c1.559 1.504 2.458 3.16 2.711 4.984 1.383.492 2.776.482 4.193-.047-.385 1.035-1.581 1.656-3.611 1.879h-.012v.197c1.855.363 3.106.428 3.742.207l.022.035c-.857 1.12-2.239 1.646-4.159 1.579z"/></svg>