<svg xmlns="http://www.w3.org/2000/svg" width="49.25" height="49.25" viewBox="0 0 49.25 49.25"><g fill="#6D6E71"><path d="M14.111 26.697h1.784v8.858h1.722v-8.858h1.782v-1.508h-5.288zM24.692 19.338c.233 0 .419-.062.556-.189.138-.131.207-.309.207-.533v-4.59c0-.184-.07-.334-.211-.445-.14-.115-.324-.172-.552-.172-.21 0-.38.057-.513.172-.13.111-.195.262-.195.445v4.59c0 .23.061.408.184.533.121.126.297.189.524.189zM28.491 27.814c-.238 0-.473.061-.706.182-.229.121-.448.301-.654.533v-3.34h-1.545v10.365h1.545v-.586c.199.236.419.408.653.52.231.111.499.166.8.166.451 0 .801-.143 1.038-.432.24-.291.36-.705.36-1.246v-4.244c0-.627-.127-1.104-.384-1.428-.253-.325-.623-.49-1.107-.49zm-.085 5.952c0 .246-.045.42-.132.527-.089.109-.225.162-.413.162-.129 0-.25-.029-.369-.082-.117-.053-.239-.146-.361-.27v-4.763c.104-.107.209-.186.314-.234.106-.053.215-.076.324-.076.206 0 .365.066.477.197.107.135.16.33.16.59v3.949zM22.907 33.719c-.144.164-.301.299-.474.408-.172.107-.316.16-.426.16-.144 0-.248-.039-.314-.121-.062-.08-.095-.211-.095-.391v-5.867h-1.528v6.395c0 .457.09.793.269 1.025.181.227.444.34.799.34.287 0 .583-.078.888-.242.306-.166.599-.4.882-.709v.838h1.529v-7.646h-1.529v5.81zM24.625 0c-13.6 0-24.625 11.025-24.625 24.625 0 13.602 11.025 24.625 24.625 24.625s24.625-11.023 24.625-24.625c0-13.6-11.025-24.625-24.625-24.625zm3.979 12.162h1.718v6.459c0 .201.039.344.111.432.07.09.188.137.35.137.126 0 .286-.061.48-.178.192-.121.37-.271.529-.457v-6.393h1.723v8.424h-1.723v-.93c-.314.342-.645.605-.989.783-.343.178-.675.27-.998.27-.399 0-.698-.127-.9-.379-.2-.248-.301-.623-.301-1.129v-7.039zm-6.391 1.926c0-.65.231-1.17.694-1.561.464-.383 1.087-.578 1.868-.578.713 0 1.296.205 1.753.611.452.406.68.934.68 1.578v4.35c0 .723-.224 1.287-.667 1.695-.448.408-1.062.613-1.844.613-.752 0-1.355-.211-1.807-.631-.451-.426-.678-.996-.678-1.711v-4.366zm-4.688-4.92l1.259 4.562h.122l1.198-4.562h1.969l-2.255 6.682v4.736h-1.938v-4.525l-2.307-6.893h1.952zm22.54 24.033c0 3.047-2.471 5.52-5.519 5.52h-19.175c-3.049 0-5.52-2.473-5.52-5.52v-4.438c0-3.049 2.471-5.52 5.52-5.52h19.176c3.048 0 5.519 2.471 5.519 5.52v4.438zM33.105 27.719c-.685 0-1.24.207-1.673.627-.433.416-.65.959-.65 1.617v3.437c0 .738.199 1.316.591 1.734.393.42.933.631 1.618.631.762 0 1.333-.197 1.715-.592.387-.398.575-.988.575-1.773v-.393h-1.571v.348c0 .451-.054.742-.152.873-.101.131-.278.197-.531.197-.244 0-.417-.076-.519-.23-.1-.158-.148-.436-.148-.84v-1.439h2.922v-1.953c0-.723-.186-1.277-.562-1.666-.376-.385-.914-.578-1.615-.578zm.605 3.008h-1.351v-.773c0-.32.05-.553.157-.686.106-.143.28-.211.524-.211.231 0 .404.068.508.211.106.133.161.365.161.686v.773z"/></g></svg>