<?xml version="1.0" encoding="utf-8"?>
<!-- Generator: Adobe Illustrator 16.2.1, SVG Export Plug-In . SVG Version: 6.00 Build 0)  -->
<!DOCTYPE svg PUBLIC "-//W3C//DTD SVG 1.1//EN" "http://www.w3.org/Graphics/SVG/1.1/DTD/svg11.dtd">
<svg version="1.1" id="Layer_1" xmlns="http://www.w3.org/2000/svg" xmlns:xlink="http://www.w3.org/1999/xlink" x="0px" y="0px"
	 width="403.246px" height="403.23px" viewBox="0 0 403.246 403.23" enable-background="new 0 0 403.246 403.23"
	 xml:space="preserve">
<g>
	<polygon fill="#FFFFFF" points="91.203,292.904 112.263,313.969 121.943,296.801 108.372,283.229 	"/>
	<path fill="#FFFFFF" d="M201.623,0C90.272,0,0,90.289,0,201.624C0,312.974,90.272,403.23,201.623,403.23
		c111.35,0,201.623-90.257,201.623-201.606C403.246,90.289,312.973,0,201.623,0z M288.742,220.575
		c-0.492,2.979-2.381,5.532-5.087,6.875l-116.661,57.698l25.904,25.899c3.614,3.608,3.624,9.503,0.011,13.132l-4.348,4.342
		c-1.741,1.746-4.069,2.711-6.56,2.711c-2.491,0-4.82-0.97-6.57-2.727l-30.158-30.152c-0.436-0.441-0.824-0.913-1.153-1.411
		l-11.595,11.584l-12.187,18.385c-1.562,2.34-4.08,3.854-6.875,4.143c-0.31,0.026-0.625,0.037-0.938,0.037
		c-2.465,0-4.851-0.98-6.628-2.737L76.583,299.04c-1.982-1.993-2.968-4.767-2.689-7.562c0.278-2.79,1.799-5.323,4.148-6.875
		l18.111-12.009l12.765-12.764l68.537-138.581c1.338-2.7,3.902-4.594,6.881-5.093c2.994-0.492,6.009,0.488,8.144,2.629l93.641,93.64
		C288.254,214.561,289.234,217.591,288.742,220.575z M292.979,174.622c-0.604,0.609-1.301,1.159-2.046,1.631
		c-3.648,2.287-7.403,1.679-8.363-1.331c-4.453-13.812-11.699-25.796-21.29-35.407c-9.571-9.555-21.428-16.791-35.104-21.149
		c-3.036-0.959-3.634-4.708-1.364-8.321c2.245-3.65,6.529-5.837,9.561-4.882c14.977,4.745,27.855,12.627,38.238,23.01
		c10.446,10.456,18.322,23.498,23.188,38.47C296.566,169.054,295.339,172.253,292.979,174.622z M335.748,172.525
		c-0.786,0.786-1.72,1.489-2.731,2.034c-3.771,1.957-7.263,0.887-7.829-2.359c-4.562-25.979-15.7-47.767-32.208-64.275
		c-16.487-16.481-38.271-27.609-64.255-32.192l0.031-0.026c-3.256-0.565-4.314-4.063-2.364-7.777
		c1.914-3.707,6.114-6.297,9.387-5.721c27.693,4.903,51.013,16.739,68.596,34.337c17.604,17.604,29.456,40.934,34.353,68.627
		C339.126,167.527,337.889,170.391,335.748,172.525z"/>
</g>
</svg>
