<?xml version="1.0" encoding="utf-8"?>
<!-- Generator: Adobe Illustrator 16.2.1, SVG Export Plug-In . SVG Version: 6.00 Build 0)  -->
<!DOCTYPE svg PUBLIC "-//W3C//DTD SVG 1.1//EN" "http://www.w3.org/Graphics/SVG/1.1/DTD/svg11.dtd">
<svg version="1.1" id="Layer_1" xmlns="http://www.w3.org/2000/svg" xmlns:xlink="http://www.w3.org/1999/xlink" x="0px" y="0px"
	 width="49.25px" height="49.248px" viewBox="0 0 49.25 49.248" enable-background="new 0 0 49.25 49.248" xml:space="preserve">
<path fill="#6D6E71" d="M24.625,0C11.025,0,0,11.027,0,24.625c0,13.6,11.025,24.623,24.625,24.623S49.25,38.225,49.25,24.625
	C49.25,11.027,38.225,0,24.625,0z M31.144,24.521H26.88c0,6.814,0,15.207,0,15.207h-6.321c0,0,0-8.307,0-15.207h-3.005v-5.369h3.005
	v-3.479c0-2.49,1.183-6.377,6.379-6.377l4.68,0.018v5.215c0,0-2.846,0-3.398,0c-0.554,0-1.339,0.277-1.339,1.461v3.162h4.817
	L31.144,24.521z"/>
</svg>
