<?xml version="1.0" encoding="utf-8"?>
<!-- Generator: Adobe Illustrator 16.2.1, SVG Export Plug-In . SVG Version: 6.00 Build 0)  -->
<!DOCTYPE svg PUBLIC "-//W3C//DTD SVG 1.1//EN" "http://www.w3.org/Graphics/SVG/1.1/DTD/svg11.dtd">
<svg version="1.1" id="Layer_1" xmlns="http://www.w3.org/2000/svg" xmlns:xlink="http://www.w3.org/1999/xlink" x="0px" y="0px"
	 width="49.249px" height="49.25px" viewBox="0 0 49.249 49.25" enable-background="new 0 0 49.249 49.25" xml:space="preserve">
<g>
	<path fill="#6D6E71" d="M24.625,0C11.025,0,0,11.025,0,24.625C0,38.227,11.025,49.25,24.625,49.25
		c13.599,0,24.624-11.023,24.624-24.625C49.249,11.025,38.224,0,24.625,0z M38.34,36.586c0,1.096-0.909,1.982-2.031,1.982H12.893
		c-1.123,0-2.031-0.887-2.031-1.982V12.896c0-1.094,0.908-1.982,2.031-1.982h23.416c1.122,0,2.031,0.889,2.031,1.982V36.586z"/>
	<path fill="#6D6E71" d="M29.378,21.285c-2.202,0-3.188,1.209-3.741,2.061v0.041h-0.027c0.01-0.012,0.02-0.027,0.027-0.041v-1.768
		h-4.149c0.054,1.17,0,12.484,0,12.484h4.149V27.09c0-0.375,0.027-0.744,0.137-1.012c0.301-0.744,0.984-1.52,2.13-1.52
		c1.503,0,2.103,1.146,2.103,2.824v6.68h4.15v-7.158C34.156,23.068,32.108,21.285,29.378,21.285z"/>
	<path fill="#6D6E71" d="M17.143,15.557c-1.419,0-2.348,0.934-2.348,2.158c0,1.197,0.9,2.158,2.293,2.158h0.027
		c1.447,0,2.349-0.961,2.349-2.158C19.437,16.49,18.562,15.557,17.143,15.557z"/>
	<rect x="15.04" y="21.578" fill="#6D6E71" width="4.151" height="12.484"/>
</g>
</svg>
