<?xml version="1.0" encoding="utf-8"?>
<!-- Generator: Adobe Illustrator 16.2.1, SVG Export Plug-In . SVG Version: 6.00 Build 0)  -->
<!DOCTYPE svg PUBLIC "-//W3C//DTD SVG 1.1//EN" "http://www.w3.org/Graphics/SVG/1.1/DTD/svg11.dtd">
<svg version="1.1" id="Layer_1" xmlns="http://www.w3.org/2000/svg" xmlns:xlink="http://www.w3.org/1999/xlink" x="0px" y="0px"
	 width="49.248px" height="49.249px" viewBox="0 0 49.248 49.249" enable-background="new 0 0 49.248 49.249" xml:space="preserve">
<g>
	<path fill="#6D6E71" d="M24.625,0C11.025,0,0,11.025,0,24.624c0,10.083,6.063,18.745,14.739,22.554
		c-0.069-1.719-0.012-3.783,0.43-5.654c0.474-1.999,3.167-13.418,3.167-13.418s-0.785-1.571-0.785-3.896
		c0-3.649,2.115-6.375,4.748-6.375c2.24,0,3.322,1.683,3.322,3.697c0,2.252-1.437,5.62-2.175,8.738
		c-0.617,2.612,1.311,4.743,3.887,4.743c4.665,0,7.808-5.992,7.808-13.092c0-5.397-3.635-9.438-10.246-9.438
		c-7.47,0-12.123,5.571-12.123,11.793c0,2.146,0.632,3.659,1.623,4.83c0.455,0.539,0.519,0.754,0.354,1.373
		c-0.119,0.453-0.39,1.543-0.502,1.975c-0.165,0.625-0.67,0.848-1.233,0.617c-3.439-1.404-5.043-5.173-5.043-9.408
		c0-6.994,5.9-15.382,17.6-15.382c9.401,0,15.588,6.802,15.588,14.106c0,9.659-5.369,16.876-13.286,16.876
		c-2.658,0-5.159-1.438-6.016-3.069c0,0-1.429,5.674-1.732,6.769c-0.522,1.899-1.544,3.796-2.479,5.275
		c2.215,0.653,4.554,1.01,6.979,1.01c13.598,0,24.623-11.024,24.623-24.625C49.248,11.025,38.223,0,24.625,0z"/>
</g>
</svg>
