<?xml version="1.0" encoding="utf-8"?>
<!-- Generator: Adobe Illustrator 16.2.1, SVG Export Plug-In . SVG Version: 6.00 Build 0)  -->
<!DOCTYPE svg PUBLIC "-//W3C//DTD SVG 1.1//EN" "http://www.w3.org/Graphics/SVG/1.1/DTD/svg11.dtd">
<svg version="1.1" id="Layer_1" xmlns="http://www.w3.org/2000/svg" xmlns:xlink="http://www.w3.org/1999/xlink" x="0px" y="0px"
	 width="49.248px" height="49.248px" viewBox="0 0 49.248 49.248" enable-background="new 0 0 49.248 49.248" xml:space="preserve">
<path fill="#6D6E71" d="M24.625,0C11.025,0,0,11.027,0,24.625c0,13.6,11.025,24.623,24.625,24.623s24.623-11.023,24.623-24.623
	C49.248,11.027,38.225,0,24.625,0z M38.223,24.904c-0.297,1.504-1.043,3.074-2.229,4.719c-2.568,3.141-5.685,5.215-9.361,6.225
	h-0.065c-3.786,1.02-7.583,0.932-11.382-0.264c-3.313-1.252-5.991-3.25-8.01-6.014c2.008,1.58,3.863,2.369,5.597,2.379l0.044-0.02
	c2.842,0.188,5.268-0.703,7.276-2.68c0.011-0.01,0.022-0.02,0.032-0.031l-0.064-0.076c-1.164,0.053-1.955-0.299-2.394-1.055
	c-0.121-0.506,0-0.945,0.373-1.318c0.208-0.24,0.527-0.461,0.933-0.658c-2.052,0.055-3.467-0.658-4.27-2.148
	c0.615-0.66,1.404-0.977,2.36-0.924l0.011-0.031c-2.437-0.66-3.721-1.846-3.841-3.568c0.626-0.186,1.272-0.285,1.942-0.273v-0.033
	c-1.898-1.076-2.854-2.557-2.843-4.414c1.745,0.541,3.468,1.23,5.169,2.064c1.559,0.658,2.908,1.338,4.061,2.051
	c0.978,0.551,1.789,1.23,2.47,2.043l0.033-0.033l0.175-0.129c0.473-1.791,1.263-3.547,2.393-5.291l0.022-0.057
	c0.438-0.635,1.01-1.336,1.722-2.096c0.342-0.34,0.736-0.658,1.187-0.953c0.088,0.055-0.044,0.361-0.396,0.932
	c0.944-0.801,1.844-1.205,2.678-1.229c0.187,0.186-0.143,0.549-0.987,1.064c0.669-0.254,1.415-0.418,2.228-0.516
	c0.352,0.043,0.473,0.217,0.373,0.537c-0.285,0.395-1.24,0.758-2.854,1.109c-0.01,0-0.021,0-0.031,0.01l0.055,0.121
	c1.777-0.068,3.324,0.494,4.642,1.668c0.022,0.023,0.044,0.043,0.065,0.055c1.559,1.504,2.458,3.16,2.711,4.984
	c1.383,0.492,2.776,0.482,4.193-0.047c-0.385,1.035-1.581,1.656-3.611,1.879c-0.012-0.014-0.012-0.014-0.012,0v0.197
	c1.855,0.363,3.106,0.428,3.742,0.207l0.022,0.035C41.525,24.445,40.143,24.971,38.223,24.904z"/>
</svg>
